# xmcd
# 
# Track frame offsets:
#     187
#     22719
#     43879
#     65404
#     91282
#     108179
#     140557
#     158672
#     190169
#     211112
#     224247
# 
# Disc length: 3257
# 
# Revision: 0
# Processed by: cddbd v1.5.2PL0 Copyright (c) Steve Scherf et al.
# Submitted via: fre:ac v1.0.27
# 
DISCID=970cb70b
DTITLE=Mighty Sam McClain - Keep On Movin'
DYEAR=1995
DGENRE=Blues
TTITLE0=Can You Stand The Test Of Love
TTITLE1=I'm So Lonely
TTITLE2=Lord Will Make A Way
TTITLE3=Who Made You Cry
TTITLE4=Hold On To The Dream
TTITLE5=Don't Worry About Me
TTITLE6=Keep On Movin'
TTITLE7=A Soul That's Been Abused
TTITLE8=I'm Sorry
TTITLE9=Let's Have Some Fun
TTITLE10=This Is All I Have To say
EXTD=YEAR: 1995
EXTT0=
EXTT1=
EXTT2=
EXTT3=
EXTT4=
EXTT5=
EXTT6=
EXTT7=
EXTT8=
EXTT9=
EXTT10=
PLAYORDER=
